<svg width="19" height="18" viewBox="0 0 19 18" fill="none" xmlns="http://www.w3.org/2000/svg">
<path d="M18.2193 3.27725H3.36367L3.14285 0.734453C3.10673 0.318623 2.76957 0 2.36567 0H0.780297C0.34935 0 0 0.361101 0 0.806543C0 1.25198 0.34935 1.61309 0.780297 1.61309H1.6523C2.12884 7.10073 0.89723 -7.08279 2.54975 11.9479C2.61344 12.6928 3.00281 13.5011 3.67356 14.0503C2.46421 15.6466 3.56919 18 5.53639 18C7.16915 18 8.32075 16.3168 7.76083 14.7226H12.0315C11.4723 16.3147 12.6214 18 14.256 18C15.5604 18 16.6216 16.9031 16.6216 15.5548C16.6216 14.2064 15.5604 13.1095 14.256 13.1095H5.54167C4.94894 13.1095 4.43242 12.7399 4.20948 12.2013L16.6797 11.4438C17.0201 11.4231 17.3081 11.1763 17.3909 10.8343L18.9764 4.2794C19.0993 3.77113 18.7271 3.27725 18.2193 3.27725ZM5.53639 16.3869C5.09252 16.3869 4.73135 16.0136 4.73135 15.5548C4.73135 15.0959 5.09252 14.7226 5.53639 14.7226C5.98031 14.7226 6.34147 15.0959 6.34147 15.5548C6.34147 16.0136 5.98031 16.3869 5.53639 16.3869ZM14.2559 16.3869C13.812 16.3869 13.4508 16.0136 13.4508 15.5548C13.4508 15.0959 13.812 14.7226 14.2559 14.7226C14.6998 14.7226 15.061 15.0959 15.061 15.5548C15.061 16.0136 14.6998 16.3869 14.2559 16.3869ZM16.0159 9.86828L3.99943 10.5982L3.50376 4.8903H17.22L16.0159 9.86828Z" fill="#FBFF3D"/>
</svg>
