<svg width="19" height="19" viewBox="0 0 19 19" fill="none" xmlns="http://www.w3.org/2000/svg">
<path d="M10.9143 9.49999L18.7071 1.7071C19.0977 1.31656 19.0977 0.683406 18.7071 0.292904C18.3166 -0.0976347 17.6834 -0.0976347 17.2929 0.292904L9.49999 8.08579L1.7071 0.292904C1.31656 -0.0976347 0.683406 -0.0976347 0.292904 0.292904C-0.0975975 0.683443 -0.0976347 1.3166 0.292904 1.7071L8.08579 9.49999L0.292904 17.2929C-0.0976347 17.6834 -0.0976347 18.3166 0.292904 18.7071C0.683443 19.0976 1.3166 19.0976 1.7071 18.7071L9.49999 10.9142L17.2928 18.7071C17.6834 19.0976 18.3166 19.0976 18.7071 18.7071C19.0976 18.3165 19.0976 17.6834 18.7071 17.2929L10.9143 9.49999Z" fill="white"/>
</svg>
